<svg preserveAspectRatio="xMidYMid meet" width="100%" height="100%" viewBox="0 0 40 40" fill="none" xmlns="http://www.w3.org/2000/svg">
<g id="Frame">
<g id="Vector" >
<path d="M36.25 20.0003V28.7503C36.25 29.7449 35.8549 30.6987 35.1517 31.4019C34.4484 32.1052 33.4946 32.5003 32.5 32.5003H30C29.0054 32.5003 28.0516 32.1052 27.3484 31.4019C26.6451 30.6987 26.25 29.7449 26.25 28.7503V22.5003C26.25 21.5057 26.6451 20.5519 27.3484 19.8486C28.0516 19.1454 29.0054 18.7503 30 18.7503H33.6953C33.395 15.3473 31.8347 12.1792 29.32 9.86685C26.8053 7.55452 23.5177 6.26473 20.1016 6.2503H20C16.5696 6.25013 13.2629 7.53227 10.7293 9.84502C8.19571 12.1578 6.61811 15.3341 6.30625 18.7503H10C10.9946 18.7503 11.9484 19.1454 12.6517 19.8486C13.3549 20.5519 13.75 21.5057 13.75 22.5003V28.7503C13.75 29.7449 13.3549 30.6987 12.6517 31.4019C11.9484 32.1052 10.9946 32.5003 10 32.5003H7.5C6.50544 32.5003 5.55161 32.1052 4.84835 31.4019C4.14509 30.6987 3.75 29.7449 3.75 28.7503V20.0003C3.7535 16.7814 4.71191 13.6359 6.50391 10.9619C8.29591 8.28793 10.8409 6.20572 13.8169 4.97881C16.7928 3.75191 20.0658 3.43548 23.2216 4.06957C26.3775 4.70366 29.2743 6.25976 31.5453 8.54092C33.0447 10.0477 34.2321 11.8354 35.0394 13.8018C35.8468 15.7683 36.2581 17.8746 36.25 20.0003Z" fill="white"/>
</g>
</g>
</svg>
