<svg preserveAspectRatio="xMidYMid meet" width="100%" height="100%" viewBox="0 0 99 157" fill="none" xmlns="http://www.w3.org/2000/svg">
<g id="Group 3">
<path id="Vector 19" d="M69.1195 8.66516C47.567 17.1728 22.6114 21.7101 6.73053 48.3672C-6.88161 70.4872 3.8954 84.0989 6.73053 120.398C8.10602 138.009 3.3275 155.563 3.89467 156.13C4.46184 156.697 7.86488 155.563 8.43205 153.294C8.99922 151.025 14.6709 141.383 20.3427 134.01C26.0144 126.637 40.7609 119.831 45.8654 116.995C50.97 114.159 77.0599 108.487 91.8064 81.8302C106.553 55.1731 92.3736 0.724748 91.8064 0.157575C91.2393 -0.409597 90.6721 0.157575 69.1195 8.66516Z" fill="#056F80"/>
<g id="Ellipse 226" >
<path d="M67.4907 92.0411C55.0129 105.653 35.7901 105.719 24.3861 94.3101C12.982 82.9011 14.2114 62.508 26.6544 50.0704C39.0974 37.6328 58.0642 36.6243 69.4682 48.0333C80.8723 59.4423 79.9337 79.6035 67.4907 92.0411Z" fill="#FF7631"/>
</g>
<g id="Ellipse 227" >
<path d="M65.2248 72.759C64.6576 83.5353 55.5829 93.1772 44.8066 93.1772C34.5975 93.1772 24.9555 84.6696 24.9555 72.759C24.9555 61.7956 32.3288 52.3408 44.8066 52.3408C56.0832 52.3408 65.2248 60.8484 65.2248 72.759Z" fill="#005162"/>
</g>
</g>
</svg>
