<svg preserveAspectRatio="none" width="100%" height="100%" overflow="visible" viewBox="0 0 295 143" fill="none" xmlns="http://www.w3.org/2000/svg">
<g id="Frame 882">
<g id="Vector">
<path d="M229.771 84.5757C229.771 84.8563 229.787 85.1682 229.818 85.5113C229.88 85.8232 229.973 86.1195 230.098 86.4001C230.222 86.6808 230.377 86.9147 230.564 87.1019C230.782 87.289 231.061 87.3826 231.403 87.3826C231.838 87.3826 232.227 87.289 232.569 87.1019C232.942 86.9147 233.33 86.6964 233.735 86.4469C233.766 86.4157 233.843 86.3534 233.968 86.2598C234.123 86.135 234.294 86.0259 234.481 85.9323C234.667 85.8076 234.838 85.6984 234.993 85.6049C235.18 85.5113 235.304 85.4333 235.366 85.371C235.491 85.2462 235.724 85.0279 236.066 84.716C236.408 84.3729 236.765 84.0143 237.138 83.64C237.511 83.2658 237.853 82.9071 238.164 82.564C238.475 82.221 238.692 81.9715 238.817 81.8155C238.941 81.7532 239.081 81.566 239.236 81.2542C239.392 80.9111 239.47 80.6616 239.47 80.5057C239.656 80.3809 239.936 80.147 240.309 79.8039C240.713 79.4297 241.117 79.0398 241.521 78.6344C241.925 78.2289 242.298 77.8547 242.64 77.5116C243.013 77.1374 243.277 76.8723 243.433 76.7163C243.464 76.654 243.526 76.5448 243.619 76.3889C243.713 76.2017 243.806 76.0146 243.899 75.8275C244.023 75.6404 244.132 75.4844 244.225 75.3597C244.319 75.2037 244.381 75.1102 244.412 75.079C244.412 75.0166 244.505 74.9074 244.692 74.7515C244.909 74.5644 245.018 74.4396 245.018 74.3773C245.049 74.3149 245.08 74.1745 245.111 73.9562C245.142 73.7379 245.174 73.504 245.205 73.2545C245.236 73.005 245.251 72.7711 245.251 72.5528C245.282 72.3033 245.298 72.1473 245.298 72.0849C245.453 71.3988 245.609 70.7127 245.764 70.0266C245.92 69.3092 245.997 68.5919 245.997 67.8746C245.997 67.5003 245.966 67.1261 245.904 66.7518C245.873 66.3464 245.78 66.0033 245.624 65.7226C245.469 65.4108 245.251 65.1613 244.971 64.9741C244.692 64.7558 244.334 64.6467 243.899 64.6467C243.122 64.6467 242.298 64.8338 241.428 65.208C240.589 65.5823 239.765 66.0501 238.957 66.6115C238.149 67.1729 237.387 67.781 236.672 68.436C235.988 69.0909 235.444 69.6991 235.04 70.2605C234.978 70.2917 234.854 70.4788 234.667 70.8218C234.481 71.1649 234.356 71.3832 234.294 71.4768C234.108 71.7575 233.921 71.9602 233.735 72.0849C233.579 72.1785 233.47 72.3968 233.408 72.7399C233.408 72.8335 233.377 73.0206 233.315 73.3013C233.284 73.582 233.253 73.8938 233.222 74.2369C233.191 74.5488 233.144 74.8451 233.082 75.1258C233.051 75.4064 233.035 75.5936 233.035 75.6871C233.035 75.7495 232.973 75.8899 232.849 76.1082C232.724 76.3265 232.584 76.576 232.429 76.8567C232.274 77.1062 232.118 77.3401 231.963 77.5584C231.838 77.7767 231.761 77.9327 231.73 78.0262C231.17 79.0866 230.704 80.1314 230.331 81.1606C229.958 82.1586 229.771 83.297 229.771 84.5757ZM238.817 92.9028C238.817 92.279 238.879 91.7644 239.003 91.359C239.159 90.9536 239.236 90.4701 239.236 89.9088C239.236 89.7216 239.221 89.5033 239.19 89.2538C239.19 88.9731 239.143 88.7236 239.05 88.5053C238.957 88.2558 238.832 88.0531 238.677 87.8972C238.522 87.7412 238.304 87.6632 238.024 87.6632C237.713 87.6632 237.449 87.7568 237.232 87.9439C237.014 88.0999 236.812 88.3026 236.625 88.5521C236.439 88.7704 236.268 89.0199 236.112 89.3006C235.957 89.5501 235.786 89.7528 235.6 89.9088C235.537 89.9711 235.366 90.0959 235.087 90.283C234.838 90.4701 234.683 90.5949 234.62 90.6573C233.626 91.3746 232.678 92.1699 231.776 93.0431C230.875 93.9164 229.911 94.7273 228.885 95.4758C228.823 95.507 228.714 95.585 228.559 95.7097C228.404 95.8345 228.233 95.9748 228.046 96.1307C227.86 96.2867 227.689 96.427 227.533 96.5518C227.409 96.6765 227.331 96.7545 227.3 96.7857C226.927 96.9416 226.507 97.0352 226.041 97.0664C225.606 97.0976 225.217 97.1132 224.876 97.1132H223.663C223.57 97.0508 223.446 96.9416 223.29 96.7857C223.166 96.5986 223.073 96.4582 223.011 96.3646C222.202 95.7409 221.518 95.1015 220.959 94.4466C220.399 93.7605 220.12 92.8716 220.12 91.78V91.5461C220.368 89.5501 220.726 87.6944 221.192 85.9791C221.689 84.2638 222.28 82.6108 222.964 81.0202C223.679 79.3985 224.471 77.8235 225.342 76.2953C226.212 74.7359 227.16 73.1297 228.186 71.4768C228.435 71.0402 228.637 70.6503 228.792 70.3072C228.948 69.933 229.181 69.5587 229.492 69.1845C229.647 68.9974 229.911 68.7011 230.284 68.2956C230.688 67.8902 231.108 67.4692 231.543 67.0325C232.009 66.5959 232.445 66.1905 232.849 65.8162C233.253 65.4108 233.548 65.1301 233.735 64.9741C233.735 64.9118 233.766 64.8026 233.828 64.6467C233.89 64.4907 233.937 64.3816 233.968 64.3192C234.03 64.288 234.154 64.1944 234.341 64.0385C234.558 63.8514 234.776 63.6642 234.993 63.4771C235.211 63.29 235.398 63.1185 235.553 62.9625C235.739 62.8066 235.864 62.7286 235.926 62.7286C236.61 62.1049 237.309 61.4967 238.024 60.9041C238.77 60.3116 239.532 59.7814 240.309 59.3135C241.086 58.8457 241.91 58.4715 242.78 58.1908C243.65 57.9101 244.598 57.7698 245.624 57.7698C246.246 57.7698 246.868 57.8477 247.489 58.0037C248.111 58.1284 248.779 58.1908 249.494 58.1908C250.054 58.1908 250.567 58.1284 251.033 58.0037C251.499 57.8477 251.95 57.6918 252.385 57.5358C252.82 57.3799 253.24 57.2396 253.644 57.1148C254.079 56.9589 254.514 56.8809 254.95 56.8809C255.664 56.8809 256.224 56.9745 256.628 57.1616C257.032 57.3175 257.343 57.5826 257.561 57.9569C257.778 58.2999 257.903 58.721 257.934 59.22C257.996 59.719 258.027 60.296 258.027 60.9509C258.027 62.2296 257.778 63.4615 257.281 64.6467C257.094 65.0833 256.861 65.5823 256.581 66.1437C256.333 66.6739 256.037 67.1573 255.696 67.5939C255.633 67.6251 255.509 67.7342 255.323 67.9214C255.167 68.1085 255.043 68.2021 254.95 68.2021C254.608 68.6699 254.297 69.2936 254.017 70.0733C253.768 70.8218 253.504 71.5859 253.224 72.3656C252.945 73.1453 252.634 73.8782 252.292 74.5644C251.981 75.2193 251.608 75.6871 251.173 75.9678C251.111 76.1238 251.017 76.3889 250.893 76.7631C250.769 77.1374 250.629 77.5428 250.473 77.9794C250.349 78.3849 250.225 78.7747 250.1 79.149C249.976 79.5232 249.898 79.7883 249.867 79.9443L249.681 80.225C249.619 80.3497 249.587 80.4121 249.587 80.4121C249.556 80.4433 249.541 80.4745 249.541 80.5057C249.541 80.568 249.494 80.724 249.401 80.9735C249.339 81.1918 249.261 81.4257 249.168 81.6752C249.106 81.9247 249.044 82.1742 248.981 82.4237C248.919 82.642 248.888 82.798 248.888 82.8915C248.857 82.9227 248.748 83.0631 248.562 83.3126C248.406 83.5621 248.313 83.718 248.282 83.7804C247.971 84.3106 247.785 84.8252 247.722 85.3242C247.66 85.8232 247.629 86.3534 247.629 86.9147V87.0083C247.66 87.1331 247.754 87.289 247.909 87.4761C248.064 87.6321 248.189 87.71 248.282 87.71C248.624 87.71 248.935 87.6009 249.214 87.3826C249.525 87.1331 249.821 86.8524 250.1 86.5405C250.38 86.1974 250.629 85.87 250.846 85.5581C251.095 85.215 251.313 84.9655 251.499 84.8096C251.903 84.4353 252.37 84.0767 252.898 83.7336C253.426 83.3593 253.986 83.0319 254.577 82.7512C255.167 82.4705 255.758 82.2522 256.348 82.0962C256.939 81.9091 257.498 81.8155 258.027 81.8155C258.089 81.8155 258.182 81.8311 258.307 81.8623C258.431 81.8935 258.524 81.9871 258.586 82.143C258.586 82.2366 258.571 82.4237 258.54 82.7044C258.54 82.9539 258.524 83.219 258.493 83.4997C258.462 83.7804 258.431 84.0455 258.4 84.295C258.4 84.5445 258.384 84.716 258.353 84.8096C258.167 85.3086 257.903 85.7608 257.561 86.1662C257.219 86.5717 256.861 86.9771 256.488 87.3826C256.115 87.7568 255.758 88.1467 255.416 88.5521C255.105 88.9575 254.872 89.4098 254.716 89.9088C253.628 91.0939 252.463 92.3102 251.219 93.5577C249.976 94.7741 248.639 95.8501 247.21 96.7857C246.712 97.1599 246.168 97.3471 245.578 97.3471C244.987 97.3471 244.35 97.3782 243.666 97.4406H243.526C243.184 97.4406 242.749 97.3315 242.221 97.1132C241.723 96.926 241.226 96.6765 240.728 96.3646C240.262 96.0216 239.827 95.6629 239.423 95.2887C239.05 94.9144 238.848 94.5558 238.817 94.2127V92.9028Z" fill="white"/>
<path d="M159.972 119.708C159.972 119.116 160.112 118.648 160.392 118.305C160.671 117.993 161.044 117.744 161.511 117.557C161.946 117.401 162.428 117.291 162.956 117.229C163.453 117.198 163.935 117.182 164.401 117.182C165.178 117.182 165.878 117.245 166.5 117.369C167.09 117.525 167.758 117.603 168.504 117.603C168.909 117.603 169.25 117.588 169.53 117.557C169.81 117.525 170.059 117.463 170.276 117.369C170.494 117.276 170.711 117.135 170.929 116.948C171.116 116.761 171.333 116.512 171.582 116.2C171.644 116.169 171.753 116.013 171.908 115.732C172.064 115.451 172.172 115.295 172.235 115.264C172.421 114.952 172.654 114.718 172.934 114.562C173.214 114.407 173.525 114.266 173.866 114.141C174.177 114.048 174.504 113.97 174.846 113.908C175.156 113.845 175.467 113.752 175.778 113.627C175.809 113.627 175.887 113.58 176.011 113.487C176.136 113.424 176.291 113.331 176.478 113.206C176.633 113.081 176.804 112.956 176.99 112.832C177.177 112.738 177.317 112.644 177.41 112.551C177.534 112.489 177.705 112.395 177.923 112.27C178.109 112.145 178.312 112.005 178.529 111.849C178.778 111.693 179.042 111.522 179.322 111.335C179.353 111.303 179.477 111.179 179.695 110.96C179.881 110.742 180.083 110.492 180.301 110.212C180.519 109.962 180.721 109.728 180.907 109.51C181.094 109.292 181.218 109.151 181.28 109.089C182.337 108.091 183.394 107.093 184.451 106.095C185.508 105.128 186.487 104.052 187.388 102.867C187.419 102.805 187.466 102.727 187.528 102.633C187.652 102.446 187.715 102.337 187.715 102.306C187.932 101.807 188.119 101.339 188.274 100.902C188.461 100.497 188.632 100.091 188.787 99.6859C188.942 99.3117 189.082 98.9218 189.207 98.5164C189.362 98.1109 189.533 97.6431 189.719 97.1129C189.719 97.0817 189.719 96.9882 189.719 96.8322C189.751 96.6451 189.782 96.458 189.813 96.2709C189.844 96.0837 189.875 95.9122 189.906 95.7562C189.937 95.6003 189.968 95.5067 189.999 95.4756C190.03 95.4444 190.092 95.3352 190.186 95.1481C190.31 94.961 190.419 94.7582 190.512 94.5399C190.636 94.2904 190.73 94.0721 190.792 93.885C190.885 93.6978 190.932 93.5887 190.932 93.5575C190.994 93.4639 191.056 93.2456 191.118 92.9026C191.211 92.5283 191.289 92.31 191.351 92.2476C191.351 92.2164 191.398 92.1229 191.491 91.9669C191.584 91.7798 191.678 91.5927 191.771 91.4056C191.895 91.2184 192.004 91.0469 192.097 90.8909C192.191 90.735 192.237 90.657 192.237 90.657C192.299 90.5635 192.362 90.314 192.424 89.9085C192.517 89.4719 192.564 89.1756 192.564 89.0197C192.595 88.7078 192.641 88.1776 192.704 87.4291C192.766 86.6494 192.828 85.8385 192.89 84.9965C192.983 84.1232 193.045 83.3123 193.077 82.5638C193.139 81.7841 193.185 81.2383 193.216 80.9264C194.118 79.6477 194.724 78.2287 195.035 76.6693C195.377 75.1099 195.548 73.5817 195.548 72.0847V71.2894C195.548 70.9775 195.532 70.6657 195.501 70.3538C195.47 70.0107 195.392 69.6988 195.268 69.4182C195.175 69.1375 195.019 68.9192 194.802 68.7632C194.615 68.5761 194.351 68.4825 194.009 68.4825C193.605 68.4825 193.201 68.5761 192.797 68.7632C192.424 68.9503 192.035 69.1531 191.631 69.3714C191.258 69.5897 190.854 69.7924 190.419 69.9795C190.015 70.1667 189.595 70.2602 189.16 70.2602H189.02C188.927 70.229 188.787 70.1823 188.6 70.1199C188.445 70.0263 188.258 69.9483 188.041 69.886C187.823 69.8236 187.621 69.7612 187.435 69.6988C187.279 69.6365 187.155 69.5741 187.062 69.5117C187.031 69.4493 186.968 69.309 186.875 69.0907C186.782 68.8412 186.735 68.6852 186.735 68.6229C186.735 68.2486 186.906 67.8276 187.248 67.3598C187.621 66.8608 187.917 66.5021 188.134 66.2838C188.165 66.2526 188.243 66.1902 188.367 66.0967C188.523 65.9719 188.694 65.8472 188.88 65.7224C189.067 65.5665 189.238 65.4261 189.393 65.3014C189.548 65.1766 189.657 65.0986 189.719 65.0675C190.155 64.6932 190.481 64.2566 190.699 63.7576C190.947 63.2586 191.243 62.8063 191.584 62.4009C191.647 62.3385 191.802 62.1826 192.051 61.9331C192.299 61.6836 192.564 61.4185 192.843 61.1378C193.154 60.8259 193.434 60.5452 193.683 60.2957C193.962 60.0462 194.149 59.8747 194.242 59.7811C194.273 59.7188 194.429 59.5316 194.708 59.2197C194.988 58.9079 195.284 58.5804 195.594 58.2373C195.936 57.8631 196.247 57.52 196.527 57.2081C196.807 56.8651 196.993 56.6468 197.086 56.5532C197.149 56.522 197.304 56.3817 197.553 56.1322C197.801 55.8827 197.972 55.7267 198.066 55.6643C198.221 55.602 198.485 55.5084 198.858 55.3837C199.231 55.2589 199.62 55.1341 200.024 55.0094C200.459 54.8535 200.848 54.7131 201.19 54.5884C201.563 54.4636 201.811 54.37 201.936 54.3077C201.967 54.3077 202.075 54.2765 202.262 54.2141C202.448 54.1205 202.573 54.0738 202.635 54.0738C202.728 54.0426 202.837 54.0114 202.961 53.9802C203.21 53.9178 203.381 53.8866 203.474 53.8866C204.003 53.8866 204.438 54.027 204.78 54.3077C205.122 54.5572 205.386 54.8846 205.572 55.2901C205.79 55.6643 205.93 56.101 205.992 56.6C206.085 57.0678 206.132 57.52 206.132 57.9566C206.132 58.3309 206.085 58.6584 205.992 58.9391C205.899 59.1886 205.79 59.4225 205.666 59.6408C205.572 59.8591 205.464 60.0774 205.339 60.2957C205.246 60.514 205.184 60.7791 205.153 61.091V63.7576C205.153 63.8199 205.137 63.9447 205.106 64.1318C205.075 64.2878 205.044 64.4749 205.013 64.6932C204.982 64.9115 204.951 65.1142 204.92 65.3014C204.889 65.4573 204.857 65.5665 204.826 65.6288C204.795 65.7224 204.733 65.9095 204.64 66.1902C204.547 66.4709 204.438 66.7828 204.313 67.1259C204.22 67.4689 204.127 67.7808 204.034 68.0615C203.972 68.3422 203.94 68.5293 203.94 68.6229C203.909 68.7164 203.878 68.9659 203.847 69.3714C203.816 69.7456 203.769 70.1511 203.707 70.5877C203.676 70.9931 203.645 71.383 203.614 71.7572C203.583 72.1003 203.552 72.3186 203.521 72.4122C203.521 72.5058 203.49 72.6773 203.428 72.9268C203.365 73.1763 203.288 73.457 203.194 73.7689C203.101 74.0495 203.023 74.3302 202.961 74.6109C202.899 74.8604 202.868 75.0164 202.868 75.0787V76.9032C202.868 77.0904 202.868 77.3087 202.868 77.5582C202.899 77.8077 202.946 78.0416 203.008 78.2599C203.101 78.447 203.21 78.6186 203.334 78.7745C203.49 78.8992 203.692 78.9616 203.94 78.9616C204.438 78.9616 204.857 78.7433 205.199 78.3067C205.572 77.8389 205.883 77.3866 206.132 76.95C206.816 75.952 207.422 74.9384 207.95 73.9092C208.479 72.8488 209.054 71.8196 209.675 70.8216C210.017 70.1979 210.297 69.5117 210.515 68.7632C210.732 68.0147 210.981 67.3286 211.261 66.7048C211.416 66.5489 211.556 66.315 211.68 66.0031C211.836 65.66 211.945 65.4573 212.007 65.3949C212.038 65.3014 212.162 65.1298 212.38 64.8803C212.597 64.6308 212.831 64.3657 213.079 64.085C213.328 63.7732 213.561 63.4925 213.779 63.243C213.996 62.9935 214.136 62.8219 214.198 62.7284C214.229 62.6972 214.291 62.6036 214.385 62.4477C214.478 62.2917 214.571 62.1202 214.664 61.9331C214.789 61.7148 214.898 61.5121 214.991 61.3249C215.084 61.1066 215.162 60.9195 215.224 60.7635C215.224 60.7324 215.24 60.6388 215.271 60.4829C215.333 60.3269 215.395 60.1554 215.457 59.9683C215.55 59.7811 215.628 59.6096 215.69 59.4537C215.752 59.2977 215.784 59.2042 215.784 59.173C215.815 59.1418 215.892 59.0482 216.017 58.8923C216.172 58.7363 216.328 58.5648 216.483 58.3777C216.638 58.1906 216.778 58.019 216.903 57.8631C217.027 57.7071 217.12 57.598 217.182 57.5356C217.182 57.5044 217.229 57.3953 217.322 57.2081C217.447 57.021 217.571 56.8183 217.695 56.6C217.851 56.3817 217.991 56.1789 218.115 55.9918C218.27 55.8047 218.379 55.6955 218.441 55.6643C218.472 55.602 218.581 55.524 218.768 55.4304C218.985 55.3057 219.203 55.1965 219.42 55.103C219.669 54.9782 219.902 54.8691 220.12 54.7755C220.337 54.6819 220.508 54.6351 220.633 54.6351H221.985C223.011 54.9782 223.757 55.4304 224.223 55.9918C224.689 56.5532 224.922 57.3329 224.922 58.3309C224.922 58.8611 224.876 59.4537 224.782 60.1086C224.72 60.7324 224.518 61.3093 224.176 61.8395C224.083 61.9955 223.912 62.2606 223.663 62.6348C223.415 62.9779 223.15 63.3521 222.871 63.7576C222.622 64.163 222.373 64.5529 222.125 64.9271C221.907 65.2702 221.767 65.5041 221.705 65.6288C221.643 65.6912 221.519 65.8004 221.332 65.9563C221.177 66.1122 221.006 66.2838 220.819 66.4709C220.633 66.658 220.462 66.8296 220.306 66.9855C220.182 67.1414 220.104 67.235 220.073 67.2662C219.514 67.9523 219.001 68.6541 218.534 69.3714C218.099 70.0887 217.649 70.806 217.182 71.5233C216.374 72.6149 215.519 73.6909 214.618 74.7513C213.716 75.7805 212.846 76.872 212.007 78.026C211.945 78.0572 211.82 78.1975 211.634 78.447C211.447 78.6965 211.323 78.8525 211.261 78.9148C211.261 79.0396 211.183 79.2735 211.028 79.6166C210.872 79.9596 210.763 80.1468 210.701 80.1779C210.67 80.2403 210.577 80.3651 210.422 80.5522C210.297 80.7081 210.157 80.8797 210.002 81.0668C209.878 81.2227 209.738 81.3787 209.582 81.5346C209.458 81.6906 209.38 81.7841 209.349 81.8153C209.318 81.8777 209.256 82.018 209.163 82.2363C209.1 82.4235 209.007 82.6262 208.883 82.8445C208.79 83.0628 208.681 83.2655 208.556 83.4527C208.463 83.6398 208.401 83.7489 208.37 83.7801C207.531 85.1212 206.614 86.4155 205.619 87.663C204.655 88.8793 203.661 90.0801 202.635 91.2652C202.604 91.2964 202.511 91.3744 202.355 91.4991C202.231 91.5927 202.091 91.7174 201.936 91.8734C201.811 91.9981 201.671 92.1385 201.516 92.2944C201.392 92.4192 201.314 92.5127 201.283 92.5751C200.879 93.0741 200.568 93.6043 200.35 94.1657C200.133 94.7271 199.822 95.2728 199.418 95.803C199.262 95.9902 198.983 96.302 198.578 96.7387C198.205 97.1753 197.801 97.6275 197.366 98.0953C196.962 98.5632 196.573 98.9998 196.2 99.4052C195.827 99.8419 195.579 100.154 195.454 100.341C195.454 100.372 195.377 100.466 195.221 100.622C195.066 100.777 194.895 100.949 194.708 101.136C194.522 101.323 194.335 101.495 194.149 101.651C193.994 101.838 193.9 101.947 193.869 101.978C192.999 102.976 192.191 104.052 191.445 105.206C190.73 106.391 189.921 107.467 189.02 108.434C188.865 108.621 188.569 108.933 188.134 109.37C187.699 109.806 187.233 110.259 186.735 110.726C186.269 111.225 185.818 111.678 185.383 112.083C184.948 112.52 184.653 112.816 184.497 112.972C184.186 113.876 183.642 114.64 182.865 115.264C181.964 115.95 181.062 116.59 180.161 117.182C179.26 117.806 178.343 118.477 177.41 119.194C177.348 119.225 177.224 119.334 177.037 119.521C176.819 119.708 176.586 119.911 176.338 120.13C176.058 120.348 175.809 120.551 175.592 120.738C175.374 120.925 175.25 121.034 175.219 121.065C174.939 121.252 174.706 121.393 174.519 121.486C174.333 121.58 174.162 121.642 174.006 121.673C173.851 121.736 173.696 121.782 173.54 121.814C173.354 121.876 173.136 121.954 172.887 122.048C172.514 122.203 172.157 122.344 171.815 122.469C171.473 122.593 171.131 122.718 170.789 122.843C170.509 122.968 170.23 123.092 169.95 123.217C169.639 123.342 169.266 123.467 168.831 123.591C168.396 123.747 167.867 123.903 167.246 124.059C166.593 124.246 165.785 124.433 164.821 124.621H162.536C162.505 124.621 162.365 124.543 162.117 124.387C161.837 124.262 161.666 124.153 161.604 124.059C160.889 123.435 160.438 122.78 160.252 122.094C160.065 121.408 159.972 120.613 159.972 119.708Z" fill="white"/>
<path d="M157.827 93.698C157.827 93.698 157.843 93.62 157.874 93.464C157.936 93.3081 157.998 93.1366 158.06 92.9495C158.153 92.7311 158.231 92.5284 158.293 92.3413C158.355 92.123 158.386 91.967 158.386 91.8735C158.48 91.6552 158.604 91.3433 158.76 90.9378C158.946 90.5324 159.117 90.1269 159.272 89.7215C159.459 89.2849 159.614 88.895 159.739 88.552C159.894 88.2089 159.987 87.9906 160.018 87.897C160.049 87.8658 160.112 87.7879 160.205 87.6631C160.298 87.5072 160.391 87.3512 160.485 87.1953C160.609 87.0082 160.718 86.8366 160.811 86.6807C160.904 86.4936 160.982 86.3532 161.044 86.2597C161.821 85.0745 162.536 83.8894 163.189 82.7043C163.842 81.5191 164.526 80.334 165.241 79.1489C165.241 79.0865 165.334 78.9305 165.52 78.681C165.707 78.4315 165.831 78.26 165.893 78.1664C166.297 77.6051 166.624 77.1061 166.872 76.6694C167.121 76.2016 167.339 75.7494 167.525 75.3128C167.712 74.8761 167.898 74.4239 168.085 73.9561C168.271 73.4883 168.504 72.9737 168.784 72.4123C168.971 72.038 169.157 71.7106 169.344 71.4299C169.53 71.1492 169.701 70.8841 169.857 70.6346C170.043 70.3539 170.183 70.0576 170.276 69.7457C170.369 69.4339 170.416 69.0596 170.416 68.623V67.5938C170.198 67.3755 169.981 67.2507 169.763 67.2195C169.577 67.1883 169.359 67.1727 169.111 67.1727C168.489 67.1727 167.898 67.2039 167.339 67.2663C166.81 67.3287 166.22 67.4378 165.567 67.5938C164.945 67.3755 164.634 66.9856 164.634 66.4242C164.634 65.8629 164.743 65.2547 164.961 64.5997C165.178 63.9136 165.489 63.3678 165.893 62.9624C165.924 62.9312 166.002 62.8688 166.126 62.7753C166.282 62.6505 166.437 62.5258 166.593 62.401C166.779 62.2451 166.95 62.1047 167.106 61.98C167.292 61.8552 167.432 61.7461 167.525 61.6525C167.712 61.5278 168.038 61.3094 168.504 60.9976C168.971 60.6857 169.468 60.3426 169.996 59.9684C170.556 59.5941 171.084 59.2354 171.582 58.8924C172.079 58.5181 172.452 58.253 172.701 58.0971C173.54 57.5669 174.41 57.1303 175.312 56.7872C176.213 56.413 177.161 56.2258 178.156 56.2258C178.716 56.2258 179.166 56.2726 179.508 56.3662C179.85 56.4285 180.114 56.5533 180.301 56.7404C180.518 56.9275 180.689 57.1926 180.814 57.5357C180.969 57.8476 181.14 58.253 181.327 58.752C181.451 59.0327 181.544 59.2978 181.606 59.5473C181.669 59.7968 181.7 60.0775 181.7 60.3894C181.7 60.982 181.606 61.5433 181.42 62.0735C181.233 62.5725 181 63.0715 180.72 63.5705C180.441 64.0384 180.145 64.5218 179.835 65.0208C179.555 65.4886 179.322 65.9876 179.135 66.5178C179.135 66.5802 179.073 66.7361 178.949 66.9856C178.855 67.2351 178.809 67.4378 178.809 67.5938C178.56 68.4047 178.234 69.1376 177.83 69.7925C177.457 70.4475 177.037 71.1648 176.571 71.9445C176.571 72.0068 176.555 72.038 176.524 72.038C176.493 72.038 176.477 72.0536 176.477 72.0848C176.477 72.1472 176.431 72.2563 176.338 72.4123C176.275 72.537 176.213 72.6306 176.151 72.693C175.654 74.2836 175.017 75.8429 174.239 77.3711C173.462 78.8993 172.623 80.3808 171.722 81.8154C171.659 81.8778 171.613 81.9402 171.582 82.0025C171.551 82.0337 171.52 82.0805 171.488 82.1429C170.991 82.8602 170.571 83.5931 170.23 84.3416C169.888 85.0589 169.717 85.9478 169.717 87.0082C169.717 87.0394 169.763 87.1641 169.857 87.3824C169.95 87.6007 170.028 87.7723 170.09 87.897C170.09 87.9594 170.121 88.0374 170.183 88.1309C170.276 88.1933 170.354 88.2245 170.416 88.2245H174.846C174.97 88.2245 175.11 88.3493 175.265 88.5988C175.421 88.8171 175.529 89.0042 175.592 89.1601V90.47C175.529 90.5636 175.296 90.8131 174.892 91.2185C174.488 91.5928 174.177 91.8891 173.96 92.1074C173.897 92.1698 173.789 92.2633 173.633 92.3881C173.478 92.5128 173.307 92.6532 173.12 92.8091C172.965 92.9339 172.81 93.0586 172.654 93.1834C172.499 93.3081 172.405 93.4017 172.374 93.464C172.312 93.464 172.203 93.4952 172.048 93.5576C171.893 93.62 171.784 93.6668 171.722 93.698C171.069 93.9786 170.401 94.3217 169.717 94.7272C169.064 95.1326 168.396 95.5224 167.712 95.8967C167.059 96.2709 166.375 96.5984 165.66 96.8791C164.976 97.1286 164.277 97.2534 163.562 97.2534C163.065 97.2534 162.536 97.2222 161.977 97.1598C161.448 97.0974 160.935 96.9727 160.438 96.7855C159.941 96.5984 159.49 96.3489 159.086 96.037C158.682 95.694 158.371 95.2418 158.153 94.6804C158.06 94.5868 157.982 94.3997 157.92 94.119C157.889 93.9942 157.858 93.8539 157.827 93.698ZM167.152 40.7879C167.805 40.3512 168.38 40.0861 168.877 39.9926C169.375 39.8678 169.965 39.7743 170.649 39.7119L171.488 39.5715H180.534L183.471 39.7587H192.843C193.341 39.8522 193.714 40.0861 193.962 40.4604C194.242 40.8035 194.351 41.0686 194.289 41.2557C194.258 41.474 194.18 41.7703 194.056 42.1445C193.931 42.4876 193.822 42.7683 193.729 42.9866C193.574 43.3609 193.356 43.7351 193.076 44.1094C192.828 44.4836 192.47 44.8735 192.004 45.2789C191.818 45.622 191.46 45.9183 190.932 46.1678C190.403 46.4173 189.828 46.542 189.206 46.542H178.482C178.234 46.4796 177.721 46.4329 176.944 46.4017C176.167 46.3705 175.327 46.3549 174.426 46.3549C173.556 46.3237 172.732 46.3081 171.955 46.3081C171.178 46.3081 170.68 46.3081 170.463 46.3081L167.992 46.121H166.686C166.375 46.0274 166.126 45.8559 165.94 45.6064C165.785 45.3569 165.66 45.0762 165.567 44.7643C165.474 44.4524 165.427 44.1561 165.427 43.8755C165.458 43.5636 165.52 43.2985 165.614 43.0802C165.862 42.6435 166.126 42.2225 166.406 41.8171C166.686 41.3804 166.935 41.0374 167.152 40.7879Z" fill="white"/>
<path d="M128.872 92.4817C128.872 92.4505 128.888 92.3725 128.919 92.2478C128.95 92.123 128.981 91.9982 129.012 91.8735C129.074 91.7176 129.121 91.5928 129.152 91.4992C129.183 91.3745 129.199 91.2965 129.199 91.2653C129.199 91.203 129.199 91.047 129.199 90.7975C129.23 90.548 129.245 90.2829 129.245 90.0022C129.245 89.7215 129.23 89.4564 129.199 89.2069C129.199 88.9574 129.199 88.7547 129.199 88.5988C129.603 88.2869 129.882 87.9594 130.038 87.6164C130.193 87.2421 130.302 86.8679 130.364 86.4936C130.426 86.0882 130.473 85.6827 130.504 85.2773C130.535 84.8718 130.628 84.4664 130.784 84.061C131.281 82.9382 131.716 81.8154 132.089 80.6927C132.462 79.5699 132.898 78.4316 133.395 77.2776C133.395 77.2464 133.442 77.1529 133.535 76.9969C133.628 76.8098 133.737 76.6227 133.861 76.4355C133.986 76.2484 134.094 76.0769 134.188 75.9209C134.312 75.765 134.39 75.687 134.421 75.687C134.607 75.2192 134.7 74.8138 134.7 74.4707C134.732 74.1276 134.763 73.8002 134.794 73.4883C134.825 73.1764 134.918 72.8645 135.073 72.5527C135.229 72.2408 135.555 71.8821 136.053 71.4767V70.3071C136.053 70.0888 136.037 69.8081 136.006 69.4651C135.975 69.0908 135.913 68.7477 135.819 68.4359C135.726 68.0928 135.586 67.7965 135.4 67.547C135.213 67.2975 134.965 67.1728 134.654 67.1728H134.421C133.706 67.4223 133.069 67.6562 132.509 67.8745C131.981 68.0928 131.328 68.202 130.551 68.202H130.178C130.022 68.202 129.851 68.1864 129.665 68.1552C129.509 68.124 129.354 68.0304 129.199 67.8745C129.199 67.8121 129.183 67.6874 129.152 67.5002C129.121 67.3131 129.074 67.1104 129.012 66.8921C128.981 66.6738 128.95 66.471 128.919 66.2839C128.888 66.0968 128.872 65.9564 128.872 65.8629V65.5354C128.872 64.8805 129.09 64.1787 129.525 63.4302C129.96 62.6817 130.473 61.9332 131.064 61.1847C131.654 60.4362 132.26 59.7345 132.882 59.0795C133.535 58.4246 134.048 57.8788 134.421 57.4422C134.421 57.411 134.498 57.255 134.654 56.9744C134.84 56.6937 134.949 56.5377 134.98 56.5065C135.788 55.7892 136.659 55.2278 137.591 54.8224C138.524 54.417 139.519 54.2142 140.575 54.2142C140.917 54.2142 141.213 54.2298 141.461 54.261C141.741 54.2922 142.083 54.3858 142.487 54.5417C142.611 54.5729 142.767 54.6353 142.953 54.7288C143.171 54.8224 143.373 54.9316 143.559 55.0563C143.777 55.1499 143.948 55.2434 144.072 55.337C144.228 55.4306 144.321 55.4929 144.352 55.5241C144.383 55.5553 144.414 55.6489 144.445 55.8048C144.508 55.9608 144.554 56.1479 144.585 56.3662C144.616 56.5533 144.632 56.756 144.632 56.9744C144.663 57.1615 144.678 57.3174 144.678 57.4422V61.7461C144.678 61.8085 144.725 61.9956 144.818 62.3075C144.943 62.6193 145.005 62.8377 145.005 62.9624C145.067 63.0248 145.129 63.1339 145.191 63.2899C145.285 63.4458 145.347 63.555 145.378 63.6174H145.704C146.233 63.3367 146.683 63.0716 147.056 62.8221C147.461 62.5414 147.88 62.1827 148.315 61.7461C148.315 61.6837 148.393 61.5122 148.548 61.2315C148.735 60.9196 148.875 60.7481 148.968 60.7169C149.155 60.4674 149.388 60.2491 149.667 60.0619C149.978 59.8748 150.274 59.6565 150.553 59.407C150.957 59.0639 151.455 58.6585 152.045 58.1907C152.636 57.6917 153.102 57.2083 153.444 56.7404C153.693 56.4598 153.879 56.1947 154.004 55.9452C154.159 55.6645 154.408 55.3838 154.75 55.1031C155.278 54.76 155.915 54.4637 156.661 54.2142C157.439 53.9335 158.153 53.7932 158.806 53.7932C159.21 53.7932 159.568 53.918 159.879 54.1675C160.221 54.417 160.563 54.6509 160.904 54.8692C161.309 55.1187 161.697 55.3682 162.07 55.6177C162.443 55.836 162.785 56.1011 163.096 56.413C163.407 56.6937 163.655 57.0211 163.842 57.3954C164.028 57.7696 164.122 58.2219 164.122 58.7521C164.122 59.2511 164.028 59.8124 163.842 60.4362C163.686 61.0288 163.438 61.5902 163.096 62.1203C162.754 62.6193 162.334 63.056 161.837 63.4302C161.371 63.7733 160.842 63.9448 160.252 63.9448C159.785 63.9448 159.35 63.7889 158.946 63.477C158.573 63.1651 158.2 62.8377 157.827 62.4946C157.485 62.1203 157.128 61.7773 156.755 61.4654C156.382 61.1535 155.978 60.9976 155.542 60.9976C155.2 60.9976 154.827 61.1067 154.423 61.3251C154.019 61.5122 153.693 61.7305 153.444 61.98C153.32 62.0736 153.102 62.2763 152.791 62.5882C152.481 62.9 152.154 63.2275 151.812 63.5706C151.47 63.9136 151.144 64.2411 150.833 64.553C150.522 64.8649 150.32 65.0832 150.227 65.2079C150.041 65.9253 149.807 66.4866 149.528 66.8921C149.248 67.2975 148.937 67.6562 148.595 67.9681C148.253 68.2799 147.88 68.5918 147.476 68.9037C147.103 69.1844 146.714 69.5742 146.31 70.0732C146.31 70.1668 146.248 70.2915 146.124 70.4475C146.031 70.5722 145.984 70.6658 145.984 70.7282C145.953 70.8217 145.906 71.0556 145.844 71.4299C145.782 71.773 145.704 72.1472 145.611 72.5527C145.549 72.9581 145.487 73.3479 145.425 73.7222C145.393 74.0653 145.378 74.2836 145.378 74.3771C145.347 74.4395 145.285 74.5955 145.191 74.845C145.129 75.0633 145.067 75.2036 145.005 75.266C144.974 75.3284 144.896 75.4687 144.772 75.687C144.647 75.8742 144.508 76.0925 144.352 76.342C144.228 76.5603 144.103 76.763 143.979 76.9501C143.886 77.1373 143.824 77.2464 143.793 77.2776C143.699 77.3712 143.606 77.4959 143.513 77.6519C143.42 77.8078 143.311 77.9793 143.186 78.1665C143.093 78.3224 143 78.4783 142.907 78.6343C142.813 78.7902 142.751 78.8838 142.72 78.915C142.596 79.1333 142.472 79.4296 142.347 79.8038C142.223 80.1781 142.083 80.5679 141.928 80.9734C141.803 81.3788 141.648 81.7531 141.461 82.0961C141.306 82.4392 141.119 82.6731 140.902 82.7979C140.902 82.8914 140.886 83.0629 140.855 83.3124C140.824 83.562 140.777 83.827 140.715 84.1077C140.684 84.3572 140.653 84.6067 140.622 84.8562C140.591 85.1057 140.575 85.2773 140.575 85.3708C140.513 85.4332 140.389 85.6515 140.202 86.0258C140.016 86.3689 139.892 86.5872 139.829 86.6807C139.487 87.3981 139.208 88.1622 138.99 88.973C138.804 89.7527 138.555 90.5168 138.244 91.2653C138.213 91.2965 138.151 91.3901 138.058 91.546C137.964 91.6708 137.856 91.8267 137.731 92.0138C137.607 92.201 137.498 92.3881 137.405 92.5752C137.312 92.7312 137.265 92.8403 137.265 92.9027C137.141 93.121 136.954 93.4953 136.705 94.0255C136.457 94.5245 136.239 94.8831 136.053 95.1014C135.99 95.1014 135.835 95.195 135.586 95.3821C135.338 95.5692 135.058 95.7876 134.747 96.0371C134.436 96.2866 134.125 96.5517 133.815 96.8324C133.504 97.0819 133.255 97.2846 133.069 97.4405C132.727 97.69 132.509 97.846 132.416 97.9083C132.323 97.9707 132.105 98.0019 131.763 98.0019C131.266 98.0019 130.83 97.8148 130.457 97.4405C130.116 97.0663 129.774 96.7076 129.432 96.3645C129.432 96.3334 129.385 96.2554 129.292 96.1306C129.23 95.9747 129.199 95.8655 129.199 95.8032C129.199 95.7408 129.183 95.5848 129.152 95.3353C129.121 95.0858 129.09 94.8207 129.059 94.5401C129.028 94.2282 128.997 93.9163 128.965 93.6044C128.934 93.2925 128.903 93.0586 128.872 92.9027V92.4817Z" fill="white"/>
<path d="M78.374 92.6688C78.374 91.5461 78.545 90.4857 78.8869 89.4877C79.2599 88.4585 79.7106 87.4761 80.2391 86.5405C80.7986 85.5736 81.4047 84.638 82.0575 83.7335C82.7103 82.8291 83.3319 81.9247 83.9225 81.0202C83.9536 80.9578 84.0158 80.8487 84.109 80.6927C84.2023 80.5368 84.2956 80.3809 84.3888 80.2249C84.5131 80.0378 84.6064 79.8663 84.6686 79.7103C84.7618 79.5544 84.8084 79.4452 84.8084 79.3829C85.3058 78.4472 85.741 77.4492 86.114 76.3888C86.5181 75.2972 86.9377 74.2525 87.3729 73.2545C87.7148 72.5371 87.9635 71.8822 88.1189 71.2896C88.2743 70.6659 88.352 69.9641 88.352 69.1844C88.2899 69.1844 88.1655 69.1688 87.979 69.1377C87.8236 69.1065 87.6837 69.0909 87.5594 69.0909H87.3729C86.4714 69.3092 85.6788 69.6211 84.9949 70.0265C84.3422 70.432 83.6428 70.853 82.8968 71.2896H82.5704C82.4771 71.2584 82.3217 71.1805 82.1041 71.0557C81.9176 70.8998 81.7156 70.7438 81.498 70.5879C81.2804 70.432 81.0783 70.276 80.8918 70.1201C80.7053 69.9329 80.581 69.7926 80.5188 69.699L80.7053 69.3248C80.7986 69.1065 80.8763 68.9038 80.9385 68.7166C81.0628 68.4047 81.1716 68.1396 81.2648 67.9213C81.3892 67.703 81.5135 67.5159 81.6379 67.36C81.7933 67.1728 81.9642 67.0013 82.1507 66.8454C82.3373 66.6582 82.5859 66.4399 82.8968 66.1904C82.9279 66.128 83.0366 66.0657 83.2231 66.0033C83.4097 65.9097 83.5029 65.8318 83.5029 65.7694C83.5651 65.7694 83.6272 65.7382 83.6894 65.6758C83.7827 65.5823 83.8604 65.5199 83.9225 65.4887C83.9225 65.4263 84.0003 65.2704 84.1557 65.0209C84.3111 64.7402 84.4199 64.5998 84.4821 64.5998C84.4821 64.5063 84.5287 64.4283 84.6219 64.3659C84.7463 64.3036 84.8084 64.2412 84.8084 64.1788C84.8706 64.1788 85.026 64.0852 85.2747 63.8981C85.5545 63.711 85.7254 63.5862 85.7876 63.5239C85.8187 63.4927 85.8808 63.4147 85.9741 63.29C86.0674 63.1652 86.1606 63.0249 86.2539 62.8689C86.3782 62.713 86.487 62.5726 86.5802 62.4479C86.6735 62.3231 86.7512 62.2452 86.8134 62.214C87.6837 61.4655 88.6163 60.8261 89.611 60.2959C90.6056 59.7657 91.5848 59.2199 92.5484 58.6586C92.6106 58.6274 92.766 58.5338 93.0147 58.3779C93.2633 58.2219 93.4654 58.0816 93.6208 57.9568C93.6208 57.9256 93.6674 57.8633 93.7607 57.7697C93.885 57.6761 94.0094 57.5826 94.1337 57.489C94.2891 57.3643 94.429 57.2707 94.5533 57.2083C94.7088 57.1148 94.8176 57.068 94.8797 57.068C95.9055 56.6314 97.0401 56.2883 98.2834 56.0388C99.5268 55.7893 100.677 55.6645 101.734 55.6645C102.511 55.6645 103.07 55.9296 103.412 56.4598C103.754 56.9588 103.925 57.5358 103.925 58.1907V58.986C103.925 59.0484 103.832 59.2823 103.645 59.6878C103.49 60.0932 103.366 60.4051 103.272 60.6234C102.775 61.6838 102.247 62.8533 101.687 64.132C101.159 65.3795 100.506 66.4711 99.7289 67.4067C99.6978 67.4691 99.6045 67.5783 99.4491 67.7342C99.2937 67.8901 99.1072 68.0617 98.8896 68.2488C98.7031 68.4359 98.5321 68.6075 98.3767 68.7634C98.2213 68.9194 98.128 69.0285 98.0969 69.0909C97.755 69.5275 97.4597 70.0109 97.211 70.5411C96.9934 71.0401 96.7603 71.5079 96.5116 71.9446C96.4806 71.9758 96.4184 72.0693 96.3251 72.2253C96.2319 72.35 96.1231 72.4904 95.9988 72.6463C95.8744 72.771 95.7501 72.8958 95.6257 73.0205C95.5325 73.1453 95.4703 73.2233 95.4392 73.2545C95.1284 73.8782 94.8642 74.5331 94.6466 75.2193C94.4601 75.9054 94.1959 76.5604 93.8539 77.1841C93.2012 78.3692 92.4862 79.57 91.7091 80.7863C90.9631 82.0026 90.4036 83.2969 90.0306 84.6692C90.0306 84.7316 90.015 84.8719 89.984 85.0902C89.9529 85.3085 89.9062 85.5424 89.8441 85.7919C89.813 86.0414 89.7819 86.2754 89.7508 86.4937C89.7197 86.712 89.6887 86.8523 89.6576 86.9147C89.5643 87.1642 89.4555 87.3825 89.3312 87.5697C89.2379 87.7256 89.1291 87.8815 89.0048 88.0375C88.8805 88.1934 88.7717 88.3649 88.6784 88.5521C88.6163 88.7392 88.5852 88.9731 88.5852 89.2538C88.5852 89.5345 88.6629 89.8308 88.8183 90.1426C89.0048 90.4233 89.2846 90.5637 89.6576 90.5637C89.9995 90.5637 90.2793 90.4857 90.4968 90.3298C90.7455 90.1426 90.9631 89.9399 91.1496 89.7216C91.3361 89.4721 91.5071 89.207 91.6625 88.9263C91.849 88.6456 92.0355 88.4117 92.222 88.2246C92.5639 87.9439 92.9525 87.7724 93.3877 87.71C93.8229 87.6476 94.2114 87.4917 94.5533 87.2422C95.5791 86.4313 96.4495 85.636 97.1644 84.8563C97.8793 84.0454 98.6254 83.1098 99.4025 82.0494C99.4646 81.9247 99.6045 81.7063 99.8221 81.3945C100.071 81.0514 100.226 80.8487 100.288 80.7863C101.003 79.9754 101.609 79.0554 102.107 78.0262C102.635 76.997 103.241 76.0769 103.925 75.2661C103.956 75.1725 104.065 75.0322 104.252 74.845C104.438 74.6579 104.64 74.4552 104.858 74.2369C105.106 74.0186 105.324 73.8158 105.511 73.6287C105.697 73.4416 105.821 73.3168 105.884 73.2545C105.946 73.2233 106.039 73.0829 106.163 72.8334C106.288 72.5527 106.412 72.272 106.536 71.9913C106.692 71.6795 106.816 71.3988 106.909 71.1493C107.034 70.8998 107.111 70.7594 107.142 70.7282C107.142 70.6659 107.189 70.6035 107.282 70.5411C107.407 70.4475 107.469 70.3696 107.469 70.3072C107.531 70.276 107.655 70.1357 107.842 69.8862C108.028 69.6367 108.122 69.4807 108.122 69.4184C108.153 69.356 108.215 69.2312 108.308 69.0441C108.401 68.8258 108.495 68.6075 108.588 68.3892C108.712 68.1708 108.821 67.9681 108.914 67.781C109.007 67.5939 109.07 67.4691 109.101 67.4067C109.349 67.0637 109.583 66.7674 109.8 66.5179C110.049 66.2372 110.235 65.8941 110.36 65.4887C110.577 64.8961 110.748 64.288 110.873 63.6642C110.997 63.0093 111.183 62.4167 111.432 61.8865C111.65 61.3251 111.914 60.7949 112.225 60.2959C112.536 59.7657 112.815 59.2199 113.064 58.6586C113.064 58.5962 113.111 58.487 113.204 58.3311C113.297 58.144 113.344 58.0192 113.344 57.9568C113.375 57.9256 113.484 57.8633 113.67 57.7697C113.888 57.645 114.09 57.5202 114.276 57.3955C114.494 57.2395 114.696 57.0992 114.882 56.9744C115.069 56.8185 115.178 56.7093 115.209 56.6469C115.271 56.6158 115.395 56.5222 115.582 56.3663C115.768 56.2103 115.97 56.0388 116.188 55.8517C116.406 55.6333 116.608 55.4462 116.794 55.2903C116.981 55.1343 117.105 55.0408 117.167 55.0096H119.498C119.716 55.072 120.058 55.2435 120.524 55.5242C120.99 55.7737 121.286 55.9608 121.41 56.0856C121.441 56.1168 121.472 56.2103 121.503 56.3663C121.534 56.5222 121.565 56.6937 121.597 56.8809C121.628 57.068 121.643 57.2395 121.643 57.3955C121.674 57.5514 121.69 57.645 121.69 57.6761C121.752 57.7385 121.861 57.9568 122.016 58.3311C122.203 58.7053 122.327 58.9237 122.389 58.986V59.0796C122.389 59.7345 122.265 60.3895 122.016 61.0444C121.768 61.6994 121.565 62.3387 121.41 62.9625C121.286 63.3679 121.192 63.789 121.13 64.2256C121.099 64.631 120.99 65.0521 120.804 65.4887C120.773 65.5199 120.711 65.6134 120.617 65.7694C120.524 65.9253 120.415 66.0969 120.291 66.284C120.198 66.4711 120.105 66.6426 120.011 66.7986C119.918 66.9545 119.856 67.0481 119.825 67.0793C119.327 67.8901 118.908 68.7634 118.566 69.699C118.255 70.6035 117.913 71.4923 117.54 72.3656C117.509 72.4592 117.447 72.5995 117.354 72.7866C117.26 72.9426 117.152 73.1297 117.027 73.348C116.934 73.5351 116.841 73.7223 116.747 73.9094C116.654 74.0653 116.608 74.1901 116.608 74.2836C116.545 74.346 116.421 74.502 116.235 74.7515C116.079 75.001 115.908 75.2817 115.722 75.5935C115.535 75.8742 115.364 76.1393 115.209 76.3888C115.084 76.6383 115.007 76.8099 114.976 76.9034C114.945 76.9658 114.898 77.1061 114.836 77.3245C114.805 77.5428 114.774 77.7767 114.743 78.0262C114.711 78.2757 114.68 78.5096 114.649 78.7279C114.649 78.9462 114.649 79.0866 114.649 79.1489C114.649 79.2113 114.587 79.3205 114.463 79.4764C114.37 79.6012 114.292 79.7103 114.23 79.8039C114.105 79.9598 113.997 80.1002 113.903 80.2249C113.841 80.3497 113.779 80.4588 113.717 80.5524C113.655 80.646 113.623 80.7239 113.623 80.7863C113.561 80.8487 113.53 80.9578 113.53 81.1138C113.53 81.2697 113.53 81.4257 113.53 81.5816C113.53 81.7375 113.53 81.8935 113.53 82.0494C113.53 82.2053 113.561 82.3145 113.623 82.3769C113.095 82.8135 112.582 83.2813 112.085 83.7803C111.587 84.2793 111.339 84.8875 111.339 85.6048C111.339 85.6672 111.354 85.7452 111.385 85.8387C111.417 85.9011 111.432 85.9635 111.432 86.0258C111.432 86.057 111.448 86.1662 111.479 86.3533C111.541 86.5404 111.603 86.7432 111.665 86.9615C111.727 87.1486 111.79 87.3357 111.852 87.5229C111.914 87.71 111.96 87.8347 111.992 87.8971H112.318C112.504 87.8971 112.784 87.71 113.157 87.3357C113.53 86.9303 113.934 86.4469 114.37 85.8855C114.836 85.3241 115.333 84.7004 115.862 84.0142C116.421 83.3281 116.981 82.7043 117.54 82.143C118.1 81.5816 118.659 81.1138 119.219 80.7395C119.778 80.3341 120.307 80.1314 120.804 80.1314C120.928 80.1314 121.115 80.147 121.363 80.1781C121.643 80.2093 121.752 80.3029 121.69 80.4588L121.13 84.6692C121.068 84.7316 120.959 84.8407 120.804 84.9967C120.68 85.1526 120.54 85.3085 120.384 85.4645C120.26 85.6204 120.136 85.7763 120.011 85.9323C119.918 86.0882 119.856 86.1974 119.825 86.2598C119.763 86.3221 119.7 86.4313 119.638 86.5872C119.576 86.7432 119.514 86.9147 119.452 87.1018C119.39 87.2578 119.327 87.4293 119.265 87.6164C119.234 87.7724 119.203 87.8659 119.172 87.8971C119.141 87.9283 119.079 88.0063 118.986 88.131C118.892 88.2558 118.783 88.3961 118.659 88.5521C118.566 88.6768 118.473 88.8172 118.379 88.9731C118.286 89.0978 118.224 89.1914 118.193 89.2538C118.193 89.3162 118.131 89.4721 118.006 89.7216C117.913 89.9399 117.866 90.0803 117.866 90.1426C117.866 90.205 117.789 90.3142 117.633 90.4701C117.509 90.5949 117.354 90.7508 117.167 90.9379C117.012 91.0939 116.841 91.2498 116.654 91.4057C116.499 91.5617 116.374 91.6864 116.281 91.78C116.219 91.8424 116.048 91.9671 115.768 92.1543C115.489 92.3102 115.302 92.4193 115.209 92.4817C114.494 93.1055 113.857 93.7604 113.297 94.4466C112.738 95.1015 112.147 95.7252 111.525 96.3178C110.904 96.9104 110.204 97.3938 109.427 97.768C108.681 98.1423 107.764 98.3294 106.676 98.3294C106.054 98.3294 105.479 98.2047 104.951 97.9552C104.423 97.7057 103.956 97.3782 103.552 96.9728C103.148 96.5673 102.822 96.0995 102.573 95.5693C102.355 95.0391 102.247 94.4777 102.247 93.8852V93.1834C102.247 93.0587 102.262 92.9184 102.293 92.7624C102.293 92.7 102.402 92.4973 102.62 92.1543C102.837 91.8112 102.946 91.5773 102.946 91.4525C102.977 91.4213 103.008 91.2966 103.039 91.0783C103.07 90.86 103.101 90.626 103.133 90.3765C103.164 90.0959 103.195 89.862 103.226 89.6748C103.257 89.4565 103.272 89.3162 103.272 89.2538C103.335 88.8795 103.412 88.5521 103.506 88.2714C103.63 87.9595 103.739 87.6632 103.832 87.3825C103.956 87.1018 104.05 86.8055 104.112 86.4937C104.205 86.1818 104.252 85.8387 104.252 85.4645V85.2773C104.189 85.2773 104.127 85.1682 104.065 84.9499C104.003 84.8563 103.956 84.7627 103.925 84.6692H103.785C103.599 84.6692 103.366 84.7472 103.086 84.9031C102.806 85.059 102.511 85.2462 102.2 85.4645C101.92 85.6828 101.641 85.9011 101.361 86.1194C101.081 86.3065 100.863 86.4625 100.708 86.5872C100.055 87.1486 99.5423 87.7256 99.1693 88.3182C98.8274 88.9107 98.3767 89.5189 97.8172 90.1426C97.7239 90.2674 97.553 90.4701 97.3043 90.7508C97.0556 91.0003 96.7914 91.2654 96.5116 91.5461C96.2319 91.8268 95.9677 92.0919 95.719 92.3414C95.4703 92.5597 95.2994 92.7 95.2061 92.7624C94.9263 93.0431 94.5223 93.2146 93.9938 93.277C93.4965 93.3082 93.1545 93.3394 92.968 93.3706C92.5329 93.5889 92.1754 93.854 91.8956 94.1659C91.6159 94.4777 91.305 94.7584 90.9631 95.0079C90.5279 95.3822 90.0928 95.6317 89.6576 95.7564C89.2535 95.8812 88.8494 96.0683 88.4453 96.3178C87.606 96.848 86.7667 97.3314 85.9275 97.768C85.0882 98.2359 84.1712 98.6413 83.1765 98.9844H82.8968C82.8035 98.9844 82.6947 98.9376 82.5704 98.844L82.2906 98.6569C81.8244 98.2515 81.3581 97.8304 80.8918 97.3938C80.4256 96.9884 80.0059 96.5517 79.6329 96.0839C79.2599 95.5849 78.9491 95.0547 78.7004 94.4933C78.4828 93.932 78.374 93.3238 78.374 92.6688Z" fill="white"/>
<path d="M35.6364 94.5401C35.6364 93.8852 35.8384 93.3238 36.2425 92.856C36.6777 92.3882 37.1906 91.9983 37.7812 91.6865C38.4029 91.3746 39.0556 91.1407 39.7395 90.9847C40.4233 90.8288 41.0139 90.7196 41.5113 90.6573C41.6045 90.6261 41.8221 90.5949 42.164 90.5637C42.506 90.5325 42.8634 90.5013 43.2364 90.4701C43.6405 90.4389 44.0136 90.4078 44.3555 90.3766C44.7285 90.3142 44.9616 90.2674 45.0549 90.2362C45.2725 90.205 45.5522 90.1271 45.8941 90.0023C46.2672 89.8776 46.6402 89.7372 47.0132 89.5813C47.3862 89.3942 47.7126 89.1914 47.9923 88.9731C48.3032 88.7548 48.5052 88.5521 48.5985 88.365C49.0958 87.3981 49.4844 86.3689 49.7641 85.2774C50.075 84.1858 50.4635 83.141 50.9298 82.143C50.9298 82.1118 50.9764 82.0338 51.0697 81.9091C51.1629 81.7531 51.2562 81.5816 51.3494 81.3945C51.4738 81.2074 51.5826 81.0358 51.6758 80.8799C51.7691 80.6928 51.8157 80.568 51.8157 80.5056C51.9089 80.3497 52.0799 80.0222 52.3286 79.5232C52.5772 79.0242 52.8415 78.494 53.1212 77.9326C53.401 77.3401 53.6652 76.7787 53.9139 76.2485C54.1625 75.6871 54.3335 75.2973 54.4268 75.0789C54.4268 75.0478 54.4734 74.9074 54.5666 74.6579C54.691 74.3772 54.7531 74.1745 54.7531 74.0498C54.7531 74.0186 54.7842 73.8782 54.8464 73.6287C54.9396 73.3792 55.0174 73.1141 55.0795 72.8334C55.1728 72.5216 55.2505 72.2409 55.3127 71.9914C55.3748 71.7419 55.4059 71.5703 55.4059 71.4768C55.437 71.4144 55.5302 71.2584 55.6857 71.0089C55.8722 70.7594 55.981 70.6191 56.012 70.5879C56.6337 69.5587 57.1466 68.4359 57.5507 67.2196C57.9548 65.9721 58.4366 64.8182 58.9961 63.7578C59.0272 63.6954 59.0894 63.5863 59.1826 63.4303C59.2759 63.2432 59.3691 63.0717 59.4624 62.9157C59.5867 62.7286 59.68 62.5571 59.7422 62.4011C59.8354 62.2452 59.882 62.1672 59.882 62.1672C59.9131 62.0425 60.0064 61.7618 60.1618 61.3251C60.3172 60.8573 60.4882 60.3739 60.6747 59.8749C60.8612 59.3447 61.0321 58.8613 61.1876 58.4247C61.343 57.988 61.4518 57.7229 61.514 57.6294C61.5761 57.5046 61.7315 57.2707 61.9802 56.9277C62.26 56.5534 62.4309 56.3195 62.4931 56.2259C63.0526 55.3215 63.4256 54.417 63.6121 53.5126C63.7986 52.6081 64.0629 51.6881 64.4048 50.7525C64.4669 50.6589 64.5913 50.4406 64.7778 50.0975C64.9643 49.7545 65.0886 49.5673 65.1508 49.5361C65.1508 49.4738 65.1508 49.349 65.1508 49.1619C65.1819 48.9436 65.213 48.7253 65.2441 48.5069C65.2751 48.2574 65.3062 48.0391 65.3373 47.852C65.3684 47.6649 65.415 47.5557 65.4772 47.5245C65.6948 46.776 66.0056 45.9963 66.4097 45.1854C66.8449 44.3434 67.2645 43.5013 67.6686 42.6592C68.1038 41.786 68.4768 40.9283 68.7877 40.0862C69.0985 39.2442 69.2539 38.4177 69.2539 37.6068C69.2539 36.2657 68.9275 35.3769 68.2748 34.9403C67.6531 34.4724 66.7206 34.2385 65.4772 34.2385C64.8555 34.2385 64.2649 34.3009 63.7054 34.4257C63.177 34.5192 62.6019 34.566 61.9802 34.566C61.2342 34.566 60.4882 34.5192 59.7422 34.4257C58.9961 34.3009 58.2501 34.2385 57.5041 34.2385C56.6959 34.2385 55.8411 34.3165 54.9396 34.4724C54.0693 34.6284 53.2611 34.8935 52.5151 35.2677C51.7691 35.642 51.1474 36.141 50.65 36.7647C50.1527 37.3885 49.904 38.1682 49.904 39.1038C49.904 39.6652 49.9506 40.1798 50.0439 40.6476C50.1682 41.0843 50.2304 41.5677 50.2304 42.0979C50.2304 42.9087 50.1838 43.6572 50.0905 44.3434C50.0283 44.9983 49.8574 45.5753 49.5776 46.0743C49.3289 46.5421 48.9249 46.9164 48.3653 47.1971C47.8369 47.4466 47.1064 47.5713 46.1739 47.5713C45.117 47.5713 44.2311 47.2438 43.5162 46.5889C42.8013 45.9028 42.133 45.1231 41.5113 44.2498C41.2315 43.9068 41.045 43.6261 40.9518 43.4077C40.8896 43.1894 40.8585 42.9399 40.8585 42.6592V41.4897C40.8585 40.3046 40.9828 39.2754 41.2315 38.4021C41.5113 37.4977 41.9309 36.5308 42.4904 35.5016C42.7391 35.0962 42.9101 34.7531 43.0033 34.4724C43.0966 34.1606 43.3452 33.8643 43.7493 33.5836C43.8115 33.5212 44.0291 33.4121 44.4021 33.2561C44.7751 33.1002 44.9927 32.991 45.0549 32.9286C45.117 32.8975 45.2258 32.8039 45.3813 32.648C45.5367 32.492 45.7076 32.3205 45.8941 32.1334C46.0807 31.9462 46.2361 31.7747 46.3604 31.6188C46.5158 31.4628 46.6246 31.3693 46.6868 31.3381C46.78 31.2445 46.9355 31.1198 47.1531 30.9638C47.3706 30.8079 47.6038 30.6363 47.8524 30.4492C48.1011 30.2621 48.3187 30.1062 48.5052 29.9814C48.7228 29.8255 48.8627 29.7319 48.9249 29.7007C49.0181 29.6071 49.2357 29.5292 49.5776 29.4668C49.9506 29.4044 50.1682 29.3732 50.2304 29.3732C50.7899 29.1237 51.3183 28.843 51.8157 28.5312C52.3441 28.2193 52.8881 27.9542 53.4476 27.7359C54.7531 27.2681 56.0587 26.9874 57.3642 26.8938C58.7008 26.7691 60.053 26.7067 61.4207 26.7067H68.9275C69.3005 26.8314 69.6736 26.9094 70.0466 26.9406C70.4507 26.9406 70.8547 26.9406 71.2588 26.9406H72.4245C72.8908 26.9406 73.3415 26.9718 73.7767 27.0342C74.2429 27.0965 74.6936 27.2213 75.1288 27.4084H87.3915C87.8267 27.4084 88.2153 27.4396 88.5572 27.502C88.9302 27.5643 89.2721 27.6423 89.583 27.7359C89.9249 27.8294 90.2668 27.9074 90.6087 27.9698C90.9507 28.0322 91.3392 28.0634 91.7744 28.0634C92.3339 28.0634 92.8002 28.0166 93.1732 27.923C93.5773 27.7983 94.028 27.7359 94.5254 27.7359C94.8362 27.7359 95.1315 27.845 95.4113 28.0634C95.7221 28.2505 96.0329 28.344 96.3438 28.344H102.265C102.296 28.344 102.374 28.3129 102.498 28.2505C102.654 28.1881 102.763 28.1257 102.825 28.0634C102.918 27.9698 103.058 27.845 103.244 27.6891C103.462 27.502 103.664 27.3148 103.851 27.1277C104.068 26.9094 104.27 26.7223 104.457 26.5663C104.643 26.3792 104.768 26.2389 104.83 26.1453V25.3032C104.83 24.5859 104.752 23.9154 104.597 23.2916C104.472 22.6367 104.41 21.9661 104.41 21.28V19.3152C104.503 19.284 104.581 19.2372 104.643 19.1748C104.705 19.0813 104.768 19.0033 104.83 18.9409C104.985 18.8474 105.234 18.6758 105.576 18.4263C105.918 18.1768 106.135 18.0521 106.229 18.0521C106.664 17.9585 107.099 17.8961 107.534 17.8649C107.969 17.8338 108.358 17.8182 108.7 17.8182C109.073 17.8182 109.415 17.8338 109.726 17.8649C110.067 17.8961 110.378 17.9585 110.658 18.0521C110.689 18.0521 110.829 18.1768 111.078 18.4263C111.357 18.6758 111.528 18.8474 111.591 18.9409C111.964 19.5023 112.274 20.0169 112.523 20.4847C112.772 20.9213 112.896 21.4515 112.896 22.0753C112.896 22.6679 112.772 23.1981 112.523 23.6659C112.274 24.1337 111.964 24.6015 111.591 25.0693C111.591 25.1317 111.513 25.2564 111.357 25.4436C111.233 25.5995 111.093 25.771 110.938 25.9582C110.813 26.1453 110.674 26.3168 110.518 26.4728C110.394 26.5975 110.332 26.6755 110.332 26.7067C109.896 27.3304 109.57 28.001 109.353 28.7183C109.135 29.4356 108.809 30.0906 108.373 30.6831C107.845 31.3693 107.208 31.9306 106.462 32.3673C105.747 32.7727 104.985 33.1158 104.177 33.3965C103.4 33.6772 102.592 33.9267 101.752 34.145C100.913 34.3321 100.105 34.5504 99.3279 34.7999C99.2968 34.8311 99.2191 34.8935 99.0947 34.987C98.9704 35.0494 98.8305 35.1274 98.6751 35.2209C98.5508 35.2833 98.4109 35.3457 98.2555 35.4081C98.1311 35.4705 98.0379 35.5016 97.9757 35.5016H94.5254C94.4321 35.5016 94.199 35.4081 93.826 35.2209C93.484 35.0026 93.2509 34.8623 93.1266 34.7999C93.0644 34.7999 92.8934 34.7999 92.6137 34.7999C92.365 34.7687 92.0697 34.7375 91.7278 34.7064C91.3859 34.6752 91.0439 34.644 90.702 34.6128C90.3601 34.5816 90.0959 34.566 89.9094 34.566H86.459C86.3968 34.566 86.2725 34.5504 86.086 34.5192C85.9306 34.488 85.7596 34.4568 85.5731 34.4257C85.4177 34.3633 85.2623 34.3165 85.1069 34.2853C84.9514 34.2541 84.8582 34.2385 84.8271 34.2385H84.2676C84.1432 34.2385 83.8946 34.3165 83.5216 34.4724C83.1796 34.5972 82.7911 34.7531 82.3559 34.9403C81.9518 35.1274 81.5633 35.3301 81.1902 35.5484C80.8483 35.7667 80.6307 35.9695 80.5375 36.1566C80.5375 36.219 80.4753 36.4061 80.351 36.718C80.2266 36.9987 80.0868 37.3105 79.9313 37.6536C79.807 37.9655 79.6827 38.2618 79.5583 38.5424C79.434 38.8231 79.3563 39.0103 79.3252 39.1038C78.9211 39.9459 78.5015 40.7256 78.0663 41.4429C77.6311 42.129 77.2736 42.9555 76.9939 43.9223C76.7452 44.7956 76.5587 45.7312 76.4344 46.7292C76.31 47.6961 76.0769 48.6317 75.735 49.5361C75.7039 49.5985 75.6106 49.7856 75.4552 50.0975C75.3309 50.3782 75.1755 50.7057 74.9889 51.0799C74.8024 51.4542 74.6159 51.8129 74.4294 52.1559C74.274 52.4678 74.1652 52.6705 74.103 52.7641C74.072 52.8265 73.9787 53.0292 73.8233 53.3722C73.699 53.6841 73.5435 54.0428 73.357 54.4482C73.1705 54.8537 72.984 55.2279 72.7975 55.571C72.6421 55.9141 72.5333 56.1324 72.4711 56.2259C72.44 56.3819 72.3468 56.6314 72.1914 56.9744C72.067 57.2863 71.9738 57.5046 71.9116 57.6294C70.9791 59.1888 70.2486 60.8729 69.7202 62.6818C69.1917 64.4595 68.6011 66.1904 67.9484 67.8746C67.3578 69.5587 66.705 71.2117 65.9901 72.8334C65.2751 74.424 64.5602 76.0146 63.8453 77.6052C63.2857 78.8839 62.6951 80.1314 62.0735 81.3477C61.4518 82.5328 60.97 83.7959 60.6281 85.137C60.597 85.1994 60.5659 85.2774 60.5348 85.3709C60.5037 85.4645 60.4882 85.5736 60.4882 85.6984V87.0083C60.4882 87.3513 60.5037 87.6944 60.5348 88.0375C60.5659 88.3805 60.6591 88.6612 60.8146 88.8795C61.1254 89.3162 61.514 89.5969 61.9802 89.7216C62.4465 89.8152 62.9127 89.8932 63.379 89.9555C63.8763 90.0179 64.3582 90.1115 64.8244 90.2362C65.2907 90.3298 65.6948 90.5793 66.0367 90.9847C66.13 91.0783 66.2543 91.2186 66.4097 91.4058C66.5651 91.5617 66.705 91.7332 66.8293 91.9204C66.9848 92.0763 67.1091 92.2166 67.2024 92.3414C67.2956 92.4661 67.3422 92.5441 67.3422 92.5753V93.0899C67.3422 94.431 66.8915 95.4914 65.9901 96.2711C65.0886 97.0508 64.0007 97.4406 62.7262 97.4406C62.3843 97.4406 62.1201 97.425 61.9336 97.3938C61.7782 97.3626 61.5295 97.2691 61.1876 97.1131H47.9457C47.8835 97.1131 47.7281 97.1443 47.4794 97.2067C47.2308 97.3003 47.0753 97.3782 47.0132 97.4406H46.9199C46.2982 97.4406 45.7232 97.3626 45.1948 97.2067C44.6663 97.0819 44.0913 97.0196 43.4696 97.0196C43.3763 97.0196 43.2054 97.0352 42.9567 97.0663C42.708 97.0975 42.5526 97.1131 42.4904 97.1131C42.3972 97.1131 42.1796 97.2223 41.8377 97.4406C41.4957 97.6589 41.2471 97.7681 41.0916 97.7681C40.843 97.7993 40.6098 97.8149 40.3922 97.8149C40.2057 97.846 40.0192 97.8616 39.8327 97.8616C39.6462 97.8616 39.5063 97.8616 39.4131 97.8616C39.3198 97.8616 39.18 97.846 38.9935 97.8149C38.838 97.8149 38.6671 97.8149 38.4806 97.8149C38.2941 97.8149 38.1231 97.7993 37.9677 97.7681C37.8123 97.7681 37.7035 97.7681 37.6413 97.7681C37.4548 97.6433 37.2372 97.4406 36.9885 97.1599C36.7709 96.8792 36.5533 96.5829 36.3358 96.2711C36.1493 95.928 35.9783 95.6005 35.8229 95.2886C35.6985 94.9768 35.6364 94.7273 35.6364 94.5401Z" fill="white"/>
</g>
</g>
</svg>
